<svg width="190" height="193" fill="none" xmlns="http://www.w3.org/2000/svg">
    <g clip-path="url(#a)">
        <path d="M94.724 0a94.65 94.65 0 0 1 66.98 27.786 94.942 94.942 0 0 1 27.744 67.082v3.47a95.003 95.003 0 0 1-7.21 36.305 94.867 94.867 0 0 1-20.534 30.777 94.73 94.73 0 0 1-30.73 20.565 94.616 94.616 0 0 1-36.25 7.221 94.652 94.652 0 0 1-66.98-27.786A94.94 94.94 0 0 1 0 98.338v-3.47c0-25.16 9.98-49.29 27.744-67.082A94.651 94.651 0 0 1 94.724 0Z" fill="#2676EE"/>
        <mask id="b" style="mask-type:luminance" maskUnits="userSpaceOnUse" x="0" y="0" width="190" height="194">
            <path d="M94.737 0a94.654 94.654 0 0 1 66.98 27.786 94.942 94.942 0 0 1 27.744 67.082v3.47a94.985 94.985 0 0 1-7.211 36.305 94.864 94.864 0 0 1-20.533 30.777 94.734 94.734 0 0 1-30.731 20.565 94.612 94.612 0 0 1-36.25 7.221 94.652 94.652 0 0 1-66.98-27.786A94.94 94.94 0 0 1 .013 98.338v-3.47c0-25.16 9.98-49.29 27.744-67.082A94.651 94.651 0 0 1 94.737 0Z" fill="#fff"/>
        </mask>
        <g mask="url(#b)">
            <path opacity=".8" d="M177.822 68.852c-29.936-17.143-56.456-3.03-69.713 11.998-13.256 15.029-23.144 30.214-39.776 32.996-16.631 2.781-41.91-4.284-60.725 8.999-18.815 13.283-18.749 48.563-3.853 68.56 14.896 19.998 53.444 29.572 97.938 36.008a117.076 117.076 0 0 0 47.85-2.661l20.205-7.356c9.864-4.509 18.144-9.599 25.147-13.72 10.656-6.308 14.406-21.663 16.45-32.917a135.83 135.83 0 0 0-.756-50.902c-4.488-21.13-14.678-40.649-32.767-51.005Z" fill="#669DF0"/>
            <path d="M124.197 34.05s16.166-5.768 27.412 10.557c11.247 16.325 6.599 25.029 13.987 36.597 7.387 11.57-4.323 26.163-.191 30.072 4.132 3.909 21.119 16.318 13.986 42.067-3.293 11.912 25.575 32.197 10.89 41.741-17.057 11.092-78.449 10.519-91.291 9.92-20.026-.942-57.216-6.017-65.48-22.564-8.265-16.548-10.98-37.375-3.147-47.95 7.832-10.576 12.93-14.574 6.503-26.207-3.325-6.016-22.721-26.142-2.695-37.24 8.983-4.98 1.347-25.52 12.797-35.859 12.606-11.39 19.263-1.452 29.148-10.346 11.22-10.118 44.362-17.153 48.081 9.213Z" fill="#000"/>
            <path d="M108.717 130.014H78.246v39.832h30.471v-39.832Z" fill="#EFB2A2"/>
            <path d="M108.717 142.862V130.02H78.24v19.197c9.434 1.069 21.258-2.592 30.477-6.355Z" fill="#000"/>
            <path d="M92.499 139.673c31.47 0 56.981-23.914 56.981-53.413 0-29.499-25.511-53.413-56.981-53.413-31.47 0-56.98 23.914-56.98 53.413 0 29.499 25.51 53.413 56.98 53.413Z" fill="#EFB2A2"/>
            <path d="M105.843 89.927s13.789-27.378 35.181-6.723c0 0-12.136 29.371-35.181 6.723Z" fill="#fff"/>
            <path d="M85.817 104.902a.53.53 0 0 1-.484-.318.536.536 0 0 1 .09-.573l5.913-6.66a.553.553 0 0 1 .381-.178.547.547 0 0 1 .394.153l5.995 5.902a.53.53 0 0 1 .16.377.537.537 0 0 1-.735.502.55.55 0 0 1-.175-.115l-5.594-5.508-5.544 6.24a.535.535 0 0 1-.4.178ZM132.328 70.215a.457.457 0 0 1-.223-.05c-10.858-5.133-19.18-.084-19.263 0a.53.53 0 0 1-.594-.02.536.536 0 0 1 .029-.891c.356-.223 8.9-5.419 20.28-.032a.54.54 0 0 1 .293.601.537.537 0 0 1-.522.418v-.026ZM77.229 70.444a.552.552 0 0 1-.305-.095c-.077-.058-8.227-5.565-19.511-1.044a.533.533 0 0 1-.672-.707.535.535 0 0 1 .278-.287c11.83-4.743 20.165.917 20.515 1.166a.528.528 0 0 1 .133.738.522.522 0 0 1-.438.23ZM35.544 94.817a.527.527 0 0 1-.521-.433c-1.107-5.915-10.026-9.245-10.121-9.276a.535.535 0 0 1 .368-1.007c.388.14 9.587 3.572 10.808 10.086a.542.542 0 0 1-.426.637l-.108-.007Z" fill="#000"/>
            <path d="M27.133 98.325a.527.527 0 0 1-.432-.222.536.536 0 0 1 .12-.745l7.63-5.489a.534.534 0 0 1 .836.525.534.534 0 0 1-.214.347l-7.628 5.489a.559.559 0 0 1-.312.095Z" fill="#000"/>
            <path d="M80.477 90.265s-14.539-26.983-35.353-5.73c0-.013 12.937 29.014 35.353 5.73Z" fill="#fff"/>
            <path d="M141.025 83.204c-8.57-8.277-15.894-8.838-21.654-6.54a13.428 13.428 0 0 0 3.402 21.833c12.015-.204 18.252-15.293 18.252-15.293ZM80.535 90.246s-8.43-15.593-21.615-13.702a13.442 13.442 0 0 0-.65 19.071 13.398 13.398 0 0 0 5.952 3.659c4.672-.146 10.133-2.591 16.313-9.028Z" fill="#000"/>
            <path d="M116.765 108.825a125.732 125.732 0 0 0-32.543 12.638s22.416 5.145 32.543-12.638Z" fill="#430400"/>
            <path d="M92.493 32.847c-31.469 0-57.731 20.903-56.981 53.42 0 1.056 10.706-8.768 16.218-15.498 5.511-6.73 5.085-22.565 27.82-13.83 22.733 8.736 36.973-12.644 36.973-12.644 2.302 13.83 10.566 13.594 20.407 19.999 9.842 6.405 12.575 18.413 9.136 30.192-1.373 4.692-3.211 19.177-2.041 22.431 4.26-7.481 5.448-21.578 5.448-30.65 0-29.505-25.512-53.42-56.98-53.42Z" fill="#000"/>
            <path d="M108.716 156.367h-30.47v13.479L3.318 178.9l1.005 14.083 185.952 2.101 2.657-21.615-84.216-3.623v-13.479ZM165.958 89.92l-1.793 16.504a15.293 15.293 0 0 1-5.607 10.259 15.232 15.232 0 0 1-11.208 3.284l-1.481-.159a5.124 5.124 0 0 1-3.434-1.882 5.138 5.138 0 0 1-1.105-3.76l4.195-38.724a3.096 3.096 0 0 1 1.316-2.203 2.964 2.964 0 0 1 1.73-.553c.116-.007.233-.007.349 0a53.205 53.205 0 0 0-16.28-30.168 53.04 53.04 0 0 0-64.56-5.868 53.169 53.169 0 0 0-21.436 26.74 55.356 55.356 0 0 0 .693 55.953l-5.601.605a15.235 15.235 0 0 1-11.208-3.284 15.271 15.271 0 0 1-5.607-10.259l-1.793-16.503a15.303 15.303 0 0 1 3.28-11.227 15.264 15.264 0 0 1 10.248-5.614l.808-.089a60.118 60.118 0 0 1 20.712-35.667 59.951 59.951 0 0 1 38.796-13.884 59.953 59.953 0 0 1 38.591 14.442 60.12 60.12 0 0 1 20.198 35.962 15.265 15.265 0 0 1 7.912 6.26 15.304 15.304 0 0 1 2.285 9.836Z" fill="#EE26C2"/>
            <path d="M122.893 137.731c-6.287 0-13.452-1.503-21.436-4.508l1.627-4.349c13.827 5.202 24.711 5.59 32.346 1.165 8.265-4.8 9.841-13.899 9.86-14.007l4.578.726c-.07.458-1.869 11.301-12.041 17.248-4.234 2.483-9.225 3.725-14.934 3.725Z" fill="#EE26C2"/>
            <path d="m100.465 136.126-4.984-1.942a5.31 5.31 0 0 1-.212-9.796 5.274 5.274 0 0 1 4.051-.085l4.985 1.942a5.279 5.279 0 0 1 2.927 2.806 5.306 5.306 0 0 1-2.716 6.989 5.279 5.279 0 0 1-4.051.086Z" fill="#000"/>
        </g>
    </g>
    <defs>
        <clipPath id="a">
            <path fill="#fff" d="M0 0h190v193H0z"/>
        </clipPath>
    </defs>
</svg>
