<svg width="256" height="314" fill="none" xmlns="http://www.w3.org/2000/svg">
    <circle cx="60.5" cy="6.5" r="6.5" fill="#669DF0"/>
    <circle cx="35.5" cy="115.5" r="4.5" fill="#2676EE"/>
    <circle cx="212.5" cy="87.5" r="8.5" fill="#2676EE"/>
    <path stroke="#000" stroke-width="2" stroke-linecap="round" d="M106 61v12M106 85v12M124 79h-12M100 79H88M158 1v12M158 25v12M176 19h-12M152 19h-12"/>
    <ellipse cx="133" cy="289.5" rx="99" ry="24.5" fill="#F4D4ED"/>
    <g clip-path="url(#a)">
        <path d="m199.236 207.471-134.884 15.72a1.63 1.63 0 0 1-1.805-1.435l-8.988-76.775a1.629 1.629 0 0 1 .822-1.611c.186-.104.392-.17.604-.194l2.555-.299a1.623 1.623 0 0 0 1.383-1.197l1.749-6.528c.051-.204.144-.395.272-.562a3.743 3.743 0 0 1 2.473-1.358l34.002-3.959a3.733 3.733 0 0 1 2.21.419c.184.106.343.248.471.417l4.844 6.44a1.62 1.62 0 0 0 1.489.639l83.44-9.717a1.635 1.635 0 0 1 1.809 1.428l8.985 76.77a1.63 1.63 0 0 1-1.431 1.802Z" fill="#000" stroke="#000" stroke-miterlimit="10"/>
        <path d="M200.521 206.74 71.886 241.208a2.946 2.946 0 0 1-3.607-2.088l-19.324-72.119a2.953 2.953 0 0 1 .293-2.238 2.941 2.941 0 0 1 1.787-1.373l.349-.094a2.962 2.962 0 0 0 2.166-2.504l.636-5.458a2.871 2.871 0 0 1 .772-1.674 3.767 3.767 0 0 1 1.706-1l33.063-8.86a3.804 3.804 0 0 1 1.364-.11c.64.079 1.234.371 1.687.831l4.904 4.843a2.945 2.945 0 0 0 2.832.752l79.151-21.209a2.94 2.94 0 0 1 2.235.296 2.955 2.955 0 0 1 1.373 1.792l19.328 72.134a2.963 2.963 0 0 1-.293 2.238 2.945 2.945 0 0 1-1.787 1.373Z" fill="#EE26C2"/>
        <mask id="b" style="mask-type:luminance" maskUnits="userSpaceOnUse" x="48" y="128" width="155" height="114">
            <path d="M200.521 206.74 71.886 241.208a2.946 2.946 0 0 1-3.607-2.088l-19.324-72.119a2.953 2.953 0 0 1 .293-2.238 2.941 2.941 0 0 1 1.787-1.373l.349-.094a2.962 2.962 0 0 0 2.166-2.504l.636-5.458a2.871 2.871 0 0 1 .772-1.674 3.767 3.767 0 0 1 1.706-1l33.063-8.86a3.804 3.804 0 0 1 1.364-.11c.64.079 1.234.371 1.687.831l4.904 4.843a2.945 2.945 0 0 0 2.832.752l79.151-21.209a2.94 2.94 0 0 1 2.235.296 2.955 2.955 0 0 1 1.373 1.792l19.328 72.134a2.963 2.963 0 0 1-.293 2.238 2.945 2.945 0 0 1-1.787 1.373Z" fill="#fff"/>
        </mask>
        <g mask="url(#b)">
            <path opacity=".1" d="M200.521 206.74 71.886 241.208a2.946 2.946 0 0 1-3.607-2.088l-19.324-72.119a2.953 2.953 0 0 1 .293-2.238 2.941 2.941 0 0 1 1.787-1.373l.349-.094a2.962 2.962 0 0 0 2.166-2.504l.636-5.458a2.871 2.871 0 0 1 .772-1.674 3.767 3.767 0 0 1 1.706-1l33.063-8.86a3.804 3.804 0 0 1 1.364-.11c.64.079 1.234.371 1.687.831l4.904 4.843a2.945 2.945 0 0 0 2.832.752l79.151-21.209a2.94 2.94 0 0 1 2.235.296 2.955 2.955 0 0 1 1.373 1.792l19.328 72.134a2.963 2.963 0 0 1-.293 2.238 2.945 2.945 0 0 1-1.787 1.373Z" fill="#000"/>
        </g>
        <path d="M200.521 206.74 71.886 241.208a2.946 2.946 0 0 1-3.607-2.088l-19.324-72.119a2.953 2.953 0 0 1 .293-2.238 2.941 2.941 0 0 1 1.787-1.373l.349-.094a2.962 2.962 0 0 0 2.166-2.504l.636-5.458a2.871 2.871 0 0 1 .772-1.674 3.767 3.767 0 0 1 1.706-1l33.063-8.86a3.804 3.804 0 0 1 1.364-.11c.64.079 1.234.371 1.687.831l4.904 4.843a2.945 2.945 0 0 0 2.832.752l79.151-21.209a2.94 2.94 0 0 1 2.235.296 2.955 2.955 0 0 1 1.373 1.792l19.328 72.134a2.963 2.963 0 0 1-.293 2.238 2.945 2.945 0 0 1-1.787 1.373Z" stroke="#000" stroke-miterlimit="10"/>
        <path d="m84.473 154.169-20.585 5.516a1.922 1.922 0 0 1-2.4-2.109 1.923 1.923 0 0 1 .732-1.276c.2-.153.429-.266.672-.331l20.585-5.516a1.919 1.919 0 0 1 1.46.193 1.93 1.93 0 0 1 .945 1.919 1.922 1.922 0 0 1-1.41 1.604Z" fill="#000"/>
        <path d="M203.893 219.325 75.258 253.792a2.95 2.95 0 0 1-3.607-2.087l-19.325-72.119a2.953 2.953 0 0 1 .294-2.238 2.939 2.939 0 0 1 1.787-1.374l.349-.093a2.953 2.953 0 0 0 2.165-2.504l.638-5.453a2.845 2.845 0 0 1 .772-1.674 3.713 3.713 0 0 1 1.706-1.001L93.1 156.39a3.76 3.76 0 0 1 1.365-.11 2.842 2.842 0 0 1 1.688.835l4.905 4.848a2.95 2.95 0 0 0 2.832.752l79.151-21.208a2.945 2.945 0 0 1 3.608 2.087l19.324 72.119a2.95 2.95 0 0 1-2.08 3.612Z" fill="#000" stroke="#000" stroke-miterlimit="10"/>
        <path d="m90.35 136.656-21.101 2.937a1.927 1.927 0 0 1-2.17-1.641 1.926 1.926 0 0 1 1.643-2.169l21.096-2.935a1.928 1.928 0 0 1 2.127 2.39 1.921 1.921 0 0 1-1.594 1.418Z" fill="#EE26C2"/>
        <path opacity=".5" d="m90.35 136.656-21.101 2.937a1.927 1.927 0 0 1-2.17-1.641 1.926 1.926 0 0 1 1.643-2.169l21.096-2.935a1.928 1.928 0 0 1 2.127 2.39 1.921 1.921 0 0 1-1.594 1.418Z" fill="#fff"/>
        <path d="m87.846 166.759-20.584 5.515a1.906 1.906 0 0 1-1.458-.194 1.907 1.907 0 0 1-.893-1.17 1.927 1.927 0 0 1 1.353-2.357l20.585-5.516a1.923 1.923 0 0 1 2.356 1.363 1.922 1.922 0 0 1-1.358 2.359Z" fill="#EE26C2"/>
        <path opacity=".5" d="m87.846 166.759-20.584 5.515a1.906 1.906 0 0 1-1.458-.194 1.907 1.907 0 0 1-.893-1.17 1.927 1.927 0 0 1 1.353-2.357l20.585-5.516a1.923 1.923 0 0 1 2.356 1.363 1.922 1.922 0 0 1-1.358 2.359Z" fill="#fff"/>
        <path d="m193.059 162.07-137.05 36.723a2.763 2.763 0 0 0-1.951 3.386l22.265 83.097a2.764 2.764 0 0 0 3.383 1.957l137.05-36.722a2.764 2.764 0 0 0 1.951-3.387l-22.266-83.096a2.764 2.764 0 0 0-3.382-1.958Z" fill="#2676EE"/>
        <path d="m193.059 162.07-137.05 36.723a2.763 2.763 0 0 0-1.951 3.386l22.265 83.097a2.764 2.764 0 0 0 3.383 1.957l137.05-36.722a2.764 2.764 0 0 0 1.951-3.387l-22.266-83.096a2.764 2.764 0 0 0-3.382-1.958Z" stroke="#000" stroke-miterlimit="10"/>
        <path d="m154.37 207.097-42.338 11.344a1.432 1.432 0 0 0-1.011 1.755l5.8 21.644a1.43 1.43 0 0 0 1.752 1.014l42.339-11.344a1.431 1.431 0 0 0 1.01-1.754l-5.799-21.645a1.431 1.431 0 0 0-1.753-1.014Z" fill="#000" stroke="#000" stroke-miterlimit="10"/>
        <path d="m154.37 207.097-42.338 11.344a1.432 1.432 0 0 0-1.011 1.755l1.247 4.654c.205.764.99 1.218 1.753 1.014l42.338-11.345a1.43 1.43 0 0 0 1.011-1.754l-1.247-4.654a1.431 1.431 0 0 0-1.753-1.014Z" fill="#fff" stroke="#000" stroke-miterlimit="10"/>
        <path d="m77.238 132.148 3.24.534s.29-.779-.437-.883l-1.127-.399" fill="#fff"/>
        <path d="m77.238 132.148 3.24.534s.29-.779-.437-.883l-1.127-.399" stroke="#000" stroke-linejoin="round"/>
    </g>
    <defs>
        <clipPath id="a">
            <path fill="#fff" transform="rotate(-15 569.34 74.955)" d="M0 0h222.618v157.651H0z"/>
        </clipPath>
    </defs>
</svg>
