<svg width="219" height="30" fill="none" xmlns="http://www.w3.org/2000/svg">
    <path d="M5.347 7.794v10.694h5.347c.733 0 1.422-.137 2.068-.41a5.547 5.547 0 0 0 1.696-1.155 5.286 5.286 0 0 0 1.136-1.695 5.187 5.187 0 0 0 .429-2.087c0-.733-.143-1.422-.429-2.068a5.233 5.233 0 0 0-2.832-2.85 5.055 5.055 0 0 0-2.068-.43H5.347Zm0 21.37H0V2.447h10.694c.981 0 1.925.13 2.832.391a9.99 9.99 0 0 1 2.534 1.08c.795.46 1.515 1.02 2.161 1.677a10.09 10.09 0 0 1 1.677 2.162c.472.795.832 1.645 1.08 2.552.261.907.392 1.85.392 2.832 0 1.466-.28 2.85-.839 4.155a10.823 10.823 0 0 1-2.291 3.39 10.766 10.766 0 0 1-3.41 2.292c-1.291.559-2.67.838-4.136.838H5.347v5.348ZM29.977 3.788c0 .472-.093.913-.28 1.323-.173.41-.415.77-.726 1.08-.31.299-.677.541-1.1.727-.41.174-.85.261-1.322.261-.472 0-.92-.087-1.341-.26a3.84 3.84 0 0 1-1.081-.727 3.84 3.84 0 0 1-.727-1.08c-.173-.41-.26-.852-.26-1.324 0-.46.087-.894.26-1.304A3.38 3.38 0 0 1 25.207.677c.423-.186.87-.28 1.342-.28.472 0 .913.094 1.323.28.422.174.788.416 1.099.727.31.298.553.658.727 1.08.186.41.28.845.28 1.304Zm-.875 25.376h-5.124V9.21h5.123v19.954ZM38.082 29.164h-5.087V9.21h1.23l1.677 1.938a8.798 8.798 0 0 1 2.776-1.715 8.839 8.839 0 0 1 3.26-.614c1.217 0 2.366.236 3.447.708 1.08.46 2.024 1.099 2.832 1.919a8.818 8.818 0 0 1 1.9 2.85 8.562 8.562 0 0 1 .708 3.466v11.402H45.74V17.762c0-.522-.1-1.013-.298-1.472a3.81 3.81 0 0 0-2.031-2.05 3.669 3.669 0 0 0-1.472-.298A3.85 3.85 0 0 0 39.2 15.06a3.808 3.808 0 0 0-.82 1.23c-.198.46-.297.95-.297 1.472v11.402ZM59.582 29.164h-5.124V1.274h5.124V18.86l7.582-9.614h5.85l-6.614 8.31 6.614 11.607h-5.85l-4.043-7.248-3.54 4.695v2.553Z" fill="#C4C4C4"/>
    <path fill-rule="evenodd" clip-rule="evenodd" d="M99.42 3.175A14.508 14.508 0 0 0 88.323.625a14.386 14.386 0 0 0-3.522 1.081 14.705 14.705 0 0 0-3.162 1.945 14.77 14.77 0 0 0-2.577 2.705A14.435 14.435 0 0 0 77.24 9.76a14.436 14.436 0 0 0-.877 3.76 15.256 15.256 0 0 0 .152 3.733 14.964 14.964 0 0 0 1.344 4.043 14.507 14.507 0 0 0 26.399-.773l-5.2-2.184a8.883 8.883 0 0 1-4.464 4.62l-.018-.096a8.917 8.917 0 0 1-2.401.754 8.894 8.894 0 0 1-3.229-.058 8.866 8.866 0 1 1 7.945-15.173 8.873 8.873 0 0 1 2.147 3.217l5.922-2.211.028.075c.84-.93 1.735-2.011 2.654-3.15-1.822-.105-3.55-.176-5.015-.14.4-1.513.736-3.397 1.057-5.404-1.569.827-3.046 1.635-4.264 2.402Z" fill="#C4C4C4"/>
    <path d="M114.835 29.036h-5.136V.884h5.136v8.895c.615-.464 1.249-.79 1.901-.978.652-.2 1.317-.3 1.994-.3a8.65 8.65 0 0 1 3.5.714 8.606 8.606 0 0 1 2.841 1.937 8.888 8.888 0 0 1 1.919 2.877 8.633 8.633 0 0 1 .715 3.498v11.509h-5.174v-11.51h.038c0-.526-.101-1.02-.301-1.485a3.855 3.855 0 0 0-2.051-2.068c-.464-.201-.96-.301-1.487-.301a3.89 3.89 0 0 0-2.766 1.128 3.836 3.836 0 0 0-.827 1.241c-.201.464-.302.96-.302 1.486v11.509ZM137.433 3.423c0 .476-.094.921-.282 1.335-.176.414-.42.777-.734 1.09-.313.301-.683.546-1.11.734a3.386 3.386 0 0 1-1.336.263 3.53 3.53 0 0 1-1.355-.263 3.882 3.882 0 0 1-1.091-.733 3.875 3.875 0 0 1-.734-1.091 3.392 3.392 0 0 1-.263-1.335c0-.464.088-.903.263-1.317a3.416 3.416 0 0 1 1.825-1.824A3.326 3.326 0 0 1 133.971 0c.477 0 .922.094 1.336.282.427.176.797.42 1.11.734.314.3.558.664.734 1.09.188.414.282.853.282 1.317Zm-.884 25.613h-5.174V8.895h5.174v20.14ZM158.093 12.9l-3.763 3.78a4.924 4.924 0 0 0-.772-1.41 4.98 4.98 0 0 0-1.11-1.072 4.625 4.625 0 0 0-1.317-.658 4.845 4.845 0 0 0-1.467-.226 4.72 4.72 0 0 0-1.995.433 4.929 4.929 0 0 0-1.618 1.222 5.8 5.8 0 0 0-1.073 1.843c-.263.715-.395 1.505-.395 2.37 0 .702.132 1.36.395 1.974a5.28 5.28 0 0 0 1.073 1.618 5.109 5.109 0 0 0 1.618 1.09 5.1 5.1 0 0 0 1.995.395c.501 0 .984-.069 1.448-.207a5.274 5.274 0 0 0 1.299-.583 4.921 4.921 0 0 0 1.091-.94c.326-.376.59-.79.79-1.241l3.763 3.78a9.927 9.927 0 0 1-1.655 1.824c-.615.54-1.286.997-2.014 1.373a9.555 9.555 0 0 1-2.276.846c-.791.2-1.606.301-2.446.301-1.418 0-2.754-.263-4.008-.79a10.667 10.667 0 0 1-3.274-2.2 10.444 10.444 0 0 1-2.202-3.253 9.9 9.9 0 0 1-.809-3.987c0-1.542.27-2.984.809-4.326.54-1.341 1.274-2.507 2.202-3.497a10.532 10.532 0 0 1 3.274-2.37 9.478 9.478 0 0 1 4.008-.865c.84 0 1.662.107 2.464.32a9.546 9.546 0 0 1 2.315.94c.74.401 1.417.896 2.032 1.486a9.146 9.146 0 0 1 1.618 2.03ZM165.789 29.036h-5.175V.884h5.175v17.752l7.658-9.703h5.908l-6.68 8.387 6.68 11.716h-5.908l-4.083-7.316-3.575 4.74v2.576ZM188.763 24.109c.201.063.401.106.602.131.201.013.401.02.602.02a5.06 5.06 0 0 0 1.449-.208 5.268 5.268 0 0 0 1.298-.583 4.975 4.975 0 0 0 1.882-2.181l3.763 3.78a9.968 9.968 0 0 1-1.656 1.824c-.614.54-1.286.997-2.013 1.373a9.546 9.546 0 0 1-2.277.846c-.79.2-1.605.301-2.446.301-1.417 0-2.753-.263-4.008-.79a10.25 10.25 0 0 1-3.274-2.2 10.425 10.425 0 0 1-2.201-3.348c-.539-1.303-.809-2.733-.809-4.287 0-1.592.27-3.047.809-4.363.539-1.316 1.273-2.439 2.201-3.366a10.148 10.148 0 0 1 3.274-2.163 10.471 10.471 0 0 1 4.008-.771 10.162 10.162 0 0 1 4.742 1.166c.727.376 1.405.84 2.032 1.392a9.968 9.968 0 0 1 1.656 1.824l-9.634 11.603Zm2.634-10.588a2.965 2.965 0 0 0-.715-.169 6.479 6.479 0 0 0-.715-.038c-.702 0-1.367.132-1.994.395a4.738 4.738 0 0 0-1.619 1.091 5.248 5.248 0 0 0-1.072 1.73c-.263.665-.395 1.417-.395 2.257 0 .188.006.401.019.64.025.237.056.482.094.733.05.238.106.47.169.695.063.226.144.427.245.602l5.983-7.936ZM206.13 29.036h-5.137V8.896h1.242l1.694 1.955a8.875 8.875 0 0 1 2.803-1.73 8.93 8.93 0 0 1 3.293-.62 8.61 8.61 0 0 1 3.481.714 8.822 8.822 0 0 1 2.86 1.937 8.904 8.904 0 0 1 1.919 2.877 8.633 8.633 0 0 1 .715 3.498v11.509h-5.137v-11.51c0-.526-.1-1.02-.301-1.485-.2-.476-.476-.89-.828-1.241a3.903 3.903 0 0 0-1.223-.827c-.464-.201-.959-.301-1.486-.301-.54 0-1.048.1-1.524.3-.477.201-.891.477-1.242.828a3.855 3.855 0 0 0-.828 1.241c-.201.464-.301.96-.301 1.486v11.509Z" fill="#C4C4C4"/>
</svg>
