<svg width="40" height="40" fill="none" xmlns="http://www.w3.org/2000/svg">
    <circle cx="20" cy="20" r="20" fill="#20B038"/>
    <path d="M16.092 13.93c.23.01.485.02.727.559.166.368.444 1.054.666 1.6.164.404.297.73.33.8.082.161.136.35.028.566l-.046.092a1.85 1.85 0 0 1-.277.447c-.054.063-.11.13-.165.198a5.457 5.457 0 0 1-.32.368c-.162.161-.33.336-.142.66.188.323.837 1.382 1.798 2.239 1.033.92 1.93 1.31 2.385 1.507.09.04.162.07.215.097.324.162.512.135.7-.081.19-.216.809-.944 1.024-1.267.216-.324.432-.27.728-.162.296.108 1.886.89 2.21 1.052l.176.086c.226.109.378.182.443.29.08.136.08.783-.189 1.538-.27.755-1.59 1.483-2.182 1.537-.057.005-.114.012-.172.019-.548.064-1.24.145-3.708-.828-3.037-1.198-5.04-4.166-5.453-4.779-.034-.05-.057-.085-.07-.101l-.003-.005c-.175-.233-1.317-1.76-1.317-3.339 0-1.489.732-2.27 1.069-2.628a6.92 6.92 0 0 0 .063-.068c.296-.324.646-.405.862-.405h.035c.204 0 .407 0 .585.008Z" fill="#fff"/>
    <path fill-rule="evenodd" clip-rule="evenodd" d="M8.853 26.345a12.744 12.744 0 0 1-1.749-6.474c0-7.127 5.822-12.922 12.948-12.922 3.472 0 6.709 1.358 9.163 3.785C31.643 13.188 33 16.425 33 19.897c0 7.127-5.821 12.922-12.948 12.922-2.166 0-4.307-.522-6.186-1.567L7 33.054l1.853-6.71Zm2.089-.731.26.391-1.096 3.968 4.073-1.07.391.235a10.635 10.635 0 0 0 5.482 1.514c5.926 0 10.755-4.83 10.755-10.755 0-2.871-1.122-5.586-3.158-7.622a10.702 10.702 0 0 0-7.597-3.133c-5.925 0-10.755 4.803-10.755 10.755 0 2.01.574 3.994 1.645 5.717Z" fill="#fff"/>
</svg>
