<svg width="24" height="24" fill="none" xmlns="http://www.w3.org/2000/svg">
    <path d="M8 2h9c2 0 3 1 3 3v1.38" stroke="#292D32" stroke-width="1.5" stroke-miterlimit="10" stroke-linecap="round" stroke-linejoin="round"/>
    <path d="M2 13.02V7c0-4 1-5 5-5h1.5c1.5 0 1.83.44 2.4 1.2l1.5 2c.38.5.6.8 1.6.8h3c4 0 5 1 5 5M22 14.99V17c0 4-1 5-5 5H7c-4 0-5-1-5-5" stroke="#292D32" stroke-width="1.5" stroke-miterlimit="10" stroke-linecap="round" stroke-linejoin="round"/>
    <path d="m6.241 11.636.964 1.7.971-1.7h.93l-1.362 2.182L9.116 16h-.929l-.982-1.63-.98 1.63h-.932l1.358-2.182-1.341-2.182h.931ZM9.977 16v-4.364h.816v.71h.054c.09-.24.24-.427.446-.562.206-.136.453-.204.741-.204.292 0 .536.068.733.204.199.136.346.324.44.563h.046c.104-.233.27-.419.497-.557.227-.14.498-.21.813-.21.395 0 .718.124.968.372.252.248.378.622.378 1.122V16h-.85v-2.847c0-.295-.08-.509-.24-.642a.879.879 0 0 0-.578-.198c-.276 0-.491.085-.644.255-.154.169-.23.386-.23.65V16h-.847v-2.9a.761.761 0 0 0-.222-.572.791.791 0 0 0-.576-.215.825.825 0 0 0-.446.127.938.938 0 0 0-.327.35 1.07 1.07 0 0 0-.122.52V16h-.85ZM17.897 10.182V16h-.85v-5.818h.85Z" fill="#000"/>
</svg>
